<svg width="143" height="131" viewBox="0 0 143 131" fill="none" xmlns="http://www.w3.org/2000/svg">
<path d="M0 8C0 3.58172 3.58172 0 8 0H135C139.418 0 143 3.58172 143 8V83C143 87.4183 139.418 91 135 91H0V8Z" fill="#CFD8DC"/>
<path d="M111.904 53.472C111.904 59.156 107.728 62.404 102.044 62.404C95.1415 62.404 90.5015 58.344 86.0355 46.048L90.1535 44.366C93.2855 53.414 96.5915 58.17 101.638 58.17C105.06 58.17 107.322 56.256 107.322 52.95C107.322 50.282 105.524 48.194 103.262 46.57C101.812 46.976 100.072 47.266 98.0995 47.44L97.1715 43.322C104.422 42.394 106.336 40.828 106.336 37.638C106.336 35.086 104.654 33.462 101.522 33.462C98.9115 33.462 96.4175 34.274 93.9235 35.782L92.4155 31.722C95.0835 30.214 98.0995 29.344 101.696 29.344C108.308 29.344 110.976 33.23 110.976 37.696C110.976 40.712 109.874 43.148 107.264 44.83L107.38 44.946C109.236 45.41 111.266 45.584 113.064 45.584C114.862 45.584 116.776 45.41 118.806 44.888V34.042H114.572V29.924H129.536V34.042H123.504V66H118.806V49.18C117.24 49.586 115.616 49.702 113.992 49.702C113.064 49.702 111.962 49.644 110.86 49.47C111.556 50.688 111.904 52.08 111.904 53.472Z" fill="#121212"/>
<path d="M35 91H88L56.6511 0H8C3.58173 0 0 3.58172 0 8V131L35 91Z" fill="#2196F3"/>
<path d="M24.7268 65H18.4371L32.5699 25.7273H39.4157L53.5486 65H47.2588L36.1558 32.8608H35.849L24.7268 65ZM25.7815 49.6207H46.1849V54.6065H25.7815V49.6207Z" fill="white"/>
</svg>
